<svg width="75" height="75" viewBox="0 0 75 75" fill="none" xmlns="http://www.w3.org/2000/svg">
<path d="M54.7066 12.7838C56.1157 12.1023 57.0917 10.6643 57.0917 8.99538C57.0917 7.88035 56.6487 6.811 55.8603 6.02256C55.0718 5.23412 54.0025 4.79118 52.8875 4.79118C51.7725 4.79118 50.7031 5.23412 49.9147 6.02256C49.1262 6.811 48.6833 7.88035 48.6833 8.99538C48.6833 10.6874 49.6824 12.137 51.1203 12.8069C49.4571 21.8159 46.9046 28.5206 37.4047 29.9528C37.4047 29.9528 39.963 42.7444 51.9288 42.7444C63.8946 42.7444 65.1074 30.0799 65.1074 30.0799C55.3996 30.5765 54.5795 18.374 54.7066 12.7838Z" fill="#F19534"/>
<path d="M20.1837 12.7838C18.7746 12.1023 17.7986 10.6643 17.7986 8.99538C17.7986 7.88035 18.2415 6.811 19.03 6.02256C19.8184 5.23412 20.8878 4.79118 22.0028 4.79118C23.1178 4.79118 24.1872 5.23412 24.9756 6.02256C25.7641 6.811 26.207 7.88035 26.207 8.99538C26.207 10.6874 25.2079 12.137 23.7699 12.8069C25.4331 21.8159 27.9857 28.5206 37.4855 29.9528C37.4855 29.9528 34.9272 42.7444 22.9614 42.7444C10.9957 42.7444 9.7887 30.0856 9.7887 30.0856C19.4907 30.5765 20.3107 18.374 20.1837 12.7838Z" fill="#F19534"/>
<path d="M51.7671 42.7444C51.8191 42.7444 51.871 42.7502 51.923 42.7502C55.2205 42.7502 57.698 41.7858 59.5576 40.394L51.7671 42.7444Z" fill="#FFCA28"/>
<path d="M68.9823 9.92515C67.0592 9.66528 65.2228 11.4959 64.8879 14.0023C64.68 15.5673 65.1015 17.0284 65.9158 17.9697L64.5298 23.7158C64.5298 23.7158 62.4104 37.2928 51.7036 39.9724C43.145 42.1149 40.0438 26.4474 39.2931 21.608C40.9216 20.7995 42.0478 19.1247 42.0478 17.1785C42.0478 14.447 39.8359 12.2351 37.1044 12.2351C34.3728 12.2351 32.161 14.447 32.161 17.1785C32.161 19.1363 33.3044 20.8283 34.9619 21.6253C34.367 26.4012 31.7452 41.549 22.5052 39.9666C13.1266 38.3554 9.03215 22.5608 8.08505 18.2642C9.21118 17.3402 9.84065 15.7117 9.60965 13.9619C9.2747 11.4498 7.28811 9.64795 5.17446 9.93093C3.06081 10.2139 1.62284 12.4777 1.95779 14.984C2.20034 16.8089 3.32069 18.2585 4.72401 18.8071L12.0698 64.4468C12.0698 64.4468 18.48 69.5115 37.1044 69.5115C55.7287 69.5115 62.139 64.4468 62.139 64.4468L69.5021 18.6858C70.6917 18.0621 71.6273 16.6588 71.8583 14.9378C72.199 12.4257 70.9112 10.185 68.9823 9.92515Z" fill="#FFCA28"/>
<path d="M37.3354 57.8864C40.4419 57.8864 42.9603 54.8846 42.9603 51.1817C42.9603 47.4787 40.4419 44.4769 37.3354 44.4769C34.2289 44.4769 31.7106 47.4787 31.7106 51.1817C31.7106 54.8846 34.2289 57.8864 37.3354 57.8864Z" fill="#1B3A4B"/>
<path d="M37.3354 46.1343C37.5548 46.3769 37.7512 46.8216 37.3354 47.6878C36.9196 48.554 34.6789 49.7264 34.2689 49.9631C33.8588 50.2057 33.5874 50.096 33.4604 49.9978C32.854 49.5127 33.085 48.4154 33.4777 47.7455C34.3208 46.296 36.1053 44.8003 37.3354 46.1343Z" fill="#006466"/>
<path d="M36.9196 53.6822C36.2844 53.9883 34.1996 54.9181 34.8868 56.0211C35.2911 56.6737 36.1284 56.9509 36.8965 56.9855C37.6646 57.0202 38.4211 56.7776 39.1026 56.4254C42.3365 54.7506 42.5964 50.3501 41.9669 50.0151C41.3201 49.6686 40.8812 50.5637 40.5463 50.9449C39.5278 52.0855 38.2957 53.0155 36.9196 53.6822Z" fill="#144552"/>
<path d="M68.3182 45.6954C69.2191 40.7116 65.8697 39.4642 65.8697 39.4642C65.8697 39.4642 63.7098 39.0715 62.6934 44.679C61.677 50.2808 63.8369 50.6735 63.8369 50.6735C63.8369 50.6735 67.4116 50.6792 68.3182 45.6954Z" fill="#1B3A4B"/>
<path d="M66.8283 41.1678C67.6137 42.2189 66.6839 43.7724 65.1767 44.8061C64.732 45.1122 64.1429 44.9967 64.0563 44.7426C63.8138 44.0149 63.9177 43.1891 64.2411 42.4903C65.1997 40.394 66.4298 40.6365 66.8283 41.1678Z" fill="#006466"/>
<path d="M5.75775 45.8456C4.85108 40.8675 8.20635 39.6144 8.20635 39.6144C8.20635 39.6144 10.3662 39.2217 11.3826 44.8292C12.399 50.4309 10.2391 50.8236 10.2391 50.8236C10.2391 50.8236 6.65865 50.8294 5.75775 45.8456Z" fill="#1B3A4B"/>
<path d="M9.23431 41.3064C10.0082 41.8839 9.69053 42.6405 9.10726 43.166C8.44313 43.7724 7.93493 44.4365 7.36899 45.1237C7.28236 45.2276 7.18419 45.3431 7.04559 45.372C6.77994 45.4298 6.56626 45.1583 6.47964 44.8985C6.23131 44.1708 6.27751 43.3161 6.64711 42.6462C7.69816 40.7347 8.93401 41.0812 9.23431 41.3064Z" fill="#006466"/>
<path d="M57.8655 50.5233C57.467 52.7929 55.6479 54.3695 53.7942 54.0461C51.9404 53.7227 51.6863 51.788 52.0848 49.5185C52.4832 47.2489 53.3783 45.5106 55.2263 45.834C57.0801 46.1574 58.264 48.2595 57.8655 50.5233Z" fill="#4D194D"/>
<path d="M17.6947 50.5233C18.0931 52.7929 19.9123 54.3695 21.766 54.0461C23.6198 53.7227 23.8739 51.788 23.4754 49.5185C23.077 47.2489 22.1818 45.5106 20.3338 45.834C18.4858 46.1574 17.302 48.2595 17.6947 50.5233Z" fill="#4D194D"/>
<path d="M20.38 49.0103C19.9584 49.4838 18.9305 50.4367 18.5666 49.7091C18.07 48.7158 18.7572 47.2143 19.5426 46.7176C20.328 46.221 20.969 46.6137 21.0788 47.0583C21.2116 47.6243 20.7554 48.5829 20.38 49.0103Z" fill="#FFA8A4" fill-opacity="0.1"/>
<path d="M53.2397 50.4598C52.668 50.3732 52.6045 48.4039 54.1406 46.8562C54.874 46.117 55.9251 46.9948 55.6594 48.1787C55.4053 49.3048 54.285 50.6215 53.2397 50.4598Z" fill="#FFA8A4" fill-opacity="0.1"/>
<path d="M63.1554 56.9047C59.6962 58.6372 51.7613 63.2514 37.1102 63.2514C22.459 63.2514 14.5242 58.6372 11.065 56.9047C11.065 56.9047 9.82336 57.5688 9.82336 58.2618V63.5806C9.82336 64.2909 10.1987 64.9435 10.8109 65.3073C13.5136 66.9012 21.7487 70.6665 37.116 70.6665C52.4832 70.6665 60.7183 66.9012 63.421 65.3073C63.7215 65.1301 63.9706 64.8777 64.1438 64.5749C64.317 64.2721 64.4082 63.9294 64.4086 63.5806V58.2618C64.397 57.5688 63.1554 56.9047 63.1554 56.9047Z" fill="#FFCA28"/>
<path d="M22.9904 64.1985C24.6074 64.5161 25.0982 64.6547 24.9885 65.5556C24.7633 67.3286 21.0846 66.907 18.9074 66.3353C14.4087 65.1514 13.4963 63.904 13.4963 62.7894C13.4963 61.7672 14.2817 61.646 15.4944 62.0733C16.9439 62.5873 19.1846 63.4535 22.9904 64.1985Z" fill="#FFF59D"/>
<path d="M63.1554 58.0712C63.1554 58.0712 53.5863 63.4882 37.1102 63.4882C20.6342 63.4882 11.065 58.0712 11.065 58.0712" stroke="#F19534" stroke-width="2.95679" stroke-miterlimit="10" stroke-linecap="round"/>
<path d="M15.6965 28.8151C18.7688 26.6207 20.4205 22.6879 20.5649 16.4278C20.5764 15.8618 20.7381 15.6944 21.0442 15.6597C21.5351 15.6077 21.6159 16.0524 21.6101 16.37C21.4715 23.1268 20.6111 27.3483 17.2038 29.7276C17.0363 29.8431 15.8409 30.5707 15.3327 30.0683C14.7263 29.4793 15.5002 28.9537 15.6965 28.8151Z" fill="#FFCA28"/>
<path d="M18.5089 9.16285C18.4108 8.11758 18.6533 6.23493 21.3964 5.38024C22.1991 5.13191 22.6958 5.52461 22.7882 5.83068C23.0192 6.59298 22.3493 6.89328 22.0432 6.99146C19.9353 7.67291 19.8314 8.72395 19.3983 9.39385C18.9652 10.0638 18.5436 9.48048 18.5089 9.16285Z" fill="#FFCA28"/>
<path d="M45.2933 27.4291C48.0711 24.9632 49.9133 22.2085 51.1261 15.9369C51.2358 15.3825 51.3975 15.2324 51.6978 15.2439C52.1887 15.2555 52.2118 15.7117 52.1598 16.0235C51.1319 22.711 50.1559 24.6167 46.7313 28.4109C46.3444 28.8382 45.4031 29.2252 44.8718 28.7805C44.3924 28.382 44.9468 27.741 45.2933 27.4291Z" fill="#FFCA28"/>
<path d="M49.382 9.21482C49.2839 8.16955 49.5264 6.28691 52.2695 5.43221C53.0723 5.18388 53.5689 5.57658 53.6613 5.88266C53.8923 6.64495 53.2224 6.94525 52.9163 7.04343C50.8085 7.72488 50.7045 8.77593 50.2714 9.44582C49.844 10.1157 49.4167 9.53245 49.382 9.21482Z" fill="#FFCA28"/>
<path d="M18.3646 41.549C11.654 38.5056 9.67898 30.565 8.62794 27.1173C8.48934 26.6611 8.55864 26.228 9.01486 26.0894C9.47108 25.9508 9.74251 26.2453 9.88688 26.7015C10.6492 29.2021 13.6118 37.5527 19.7275 39.9262C20.1721 40.0995 20.8651 40.5211 20.4898 41.2429C20.2414 41.7107 19.4445 42.0399 18.3646 41.549Z" fill="#FFF59D"/>
<path d="M7.44405 14.4123C7.12065 13.7424 6.98783 13.1072 5.22646 12.3738C4.78178 12.189 4.48726 11.7789 4.60853 11.3169C4.72981 10.8549 5.19181 10.5084 5.8617 10.6239C8.03888 10.9993 8.51242 13.2111 8.60483 13.9792C8.69145 14.7184 7.77323 15.0822 7.44405 14.4123Z" fill="#FFF59D"/>
<path d="M56.0637 41.549C62.7742 38.5056 64.7493 30.565 65.8003 27.1173C65.9389 26.6611 65.8696 26.228 65.4134 26.0894C64.9572 25.9508 64.6857 26.2453 64.5414 26.7015C63.7791 29.2021 60.8165 37.5527 54.7008 39.9262C54.2561 40.0995 53.5631 40.5211 53.9385 41.2429C54.1868 41.7107 54.9838 42.0399 56.0637 41.549Z" fill="#FFF59D"/>
<path d="M66.9842 14.4123C67.3076 13.7424 67.4405 13.1072 69.2018 12.3738C69.6465 12.189 69.941 11.7789 69.8197 11.3169C69.6985 10.8549 69.2365 10.5084 68.5666 10.6239C66.3894 10.9993 65.9159 13.2111 65.8235 13.9792C65.7368 14.7184 66.6608 15.0822 66.9842 14.4123Z" fill="#FFF59D"/>
<path d="M34.4133 17.2536C34.7655 16.5317 35.3835 15.5442 37.3989 15.1284C38.1728 14.9667 38.398 14.6318 38.3287 14.1236C38.1901 13.0668 36.8734 13.1418 36.1631 13.3093C33.7953 13.8637 33.2698 15.9658 33.1716 16.7974C33.0735 17.5886 34.0668 17.9755 34.4133 17.2536Z" fill="#FFF59D"/>
</svg>
